<?xml version="1.0" encoding="UTF-8"?>
<svg id="Capa_1" xmlns="http://www.w3.org/2000/svg" version="1.1" viewBox="0 0 1200 1200">
  <!-- Generator: Adobe Illustrator 29.1.0, SVG Export Plug-In . SVG Version: 2.1.0 Build 142)  -->
  <defs>
    <style>
      .st0 {
        fill: #d40a34;
      }

      .st1 {
        fill: #5f6a74;
      }
    </style>
  </defs>
  <path class="st0" d="M125.96,402.86c31.07-.74,74.53,9.48,95.26,34.37,10.78,12.94,16.21,35.64-1.7,45.15-28.37,15.06-37.2-16.12-56.9-26.82s-67.63-12.72-74.23,14.63c-5.74,23.79,18.22,29.55,35.68,34.21,55.54,14.84,126.06,16.8,117.01,96.94-9.35,82.77-155.46,87.33-198.77,34.46-11.71-14.3-20.09-43.47,1.71-52.64,28.6-12.02,36.75,21.76,56.34,33.92,17.92,11.12,44.05,13.56,63.12,4.07,27.02-13.45,26.75-43.51-3.63-53.26-49.83-15.99-128.5-15.09-129.29-85.2-.61-54.24,47.09-78.67,95.39-79.83Z"/>
  <path class="st0" d="M307.86,645.15c-1.29.92-1.06,13.89-.99,16.43.42,16.75,3.17,39.68-.18,55.93-3.88,18.85-28.45,24.28-42.78,13.25-7.75-5.97-8.52-14.18-9.49-23.29,2.92-67.17-3.75-137.44,0-204.25.7-12.48,2.16-28.24,17.45-30.32,19.73-2.68,32.25,6.46,30.36,27.08,2.1,2.02,6.8-7.11,8.4-8.92,26.27-29.82,79.72-21.69,104.46,6.1,31.18,35.02,30.95,112.3-.94,147.07-21.66,23.61-66.57,32.72-93.12,12.55-2.04-1.55-11.73-12.65-13.18-11.62ZM338.53,513.34c-38.83,5.28-41.51,70.27-24.89,96.52,8.94,14.12,23.33,18.43,39.53,16.45,45.94-5.61,47.7-121.46-14.64-112.98Z"/>
  <path class="st0" d="M1046.78,640.46c-1.28-1.12-10.85,7.8-12.81,9.19-23.02,16.37-47.51,22.66-75.42,14.89-31.79-8.85-47.2-34.74-38.67-67.17,10.89-41.39,57.49-40.3,91.67-45.07,10.95-1.53,29.2-1.62,31.44-15.39,4.85-29.91-39.64-29.13-58.02-18.69-14.24,8.09-25.05,29.62-44.99,18.79-14.73-8-11.94-25.37-3.15-36.96,21.47-28.33,77.63-32.06,109.43-24.36,23.6,5.71,46.71,16.16,49.22,43.5,3.15,34.25-3.62,73.41,1.06,107.58,1.55,11.33,9.05,24.09-1.02,33.86-16.56,16.06-48.96,3.9-48.74-20.17ZM1043.98,577.72c-6.42.9-12.17,3.71-18.72,5.16-17.75,3.91-55.32,2.45-55.32,28.09,0,23.38,30.71,25.29,47.52,19.37,11.49-4.04,26.52-18.75,26.52-31.55v-21.07Z"/>
  <path class="st0" d="M531.49,473.1c55.26-5.62,109.54,23.08,111.63,83.56.54,15.47-5.91,21.78-21.03,22.97-36.12,2.84-75.93-2.18-112.44-.06-11.37.18-3.45,19.86-.28,25.61,11.02,19.97,41.53,25.67,61.63,17.94,16.99-6.54,32.31-32.34,51.99-18.24,18.24,13.07,5.03,35.82-9.53,45.71-29.61,20.11-78.92,22.05-111.29,7.68-81.33-36.12-63.5-175.73,29.32-185.18ZM504.73,549.42c2.44,1.72,7.71.16,10.52.15,24.69-.11,49.38.15,74.08.1,6.09-.14,2.25-8.54.87-12.2-12.8-34.24-58.74-38.84-78.96-8.75-2.09,3.11-9.98,18.26-6.51,20.72Z"/>
  <path class="st0" d="M748.8,472.11c27.19-.42,78.24,13.39,79.81,47.05.86,18.41-17.06,30.56-33.45,23.13-13.13-5.95-11.63-22.05-32.36-27.58-66.33-17.71-77.87,116.81-7.87,111.59,26.82-2,26.5-27.27,44.56-32.23,14.48-3.97,29.4,4.78,29.15,20.64-.66,40.79-57.09,55.17-89.55,52.96-118.15-8.04-110.07-193.7,9.71-195.55Z"/>
  <path class="st0" d="M1136.47,402.82c17.86-2.6,31.89,5.78,33.04,24.54l-.05,215.43c-1.19,32.5-49.85,33.97-52.47,1.92l.05-220.11c1.41-10.9,8.06-20.12,19.43-21.78Z"/>
  <path class="st0" d="M872.39,471.2c18.41-1.67,28.08,10.11,29.27,27.34,3.32,47.91-1.76,100.64-1.05,148.88-4.34,26.62-42.29,28.23-50.8,4.12-1.42-52.37-.36-105.05-.54-157.53,1.97-11.85,10.81-21.68,23.11-22.8Z"/>
  <path class="st1" d="M865.81,715.63c59.08-7.48,76.5,69.74,27.72,90.47-39.17,16.65-76.98-19.76-64.28-59.6,4.7-14.73,21.12-28.92,36.56-30.87ZM873.36,736.21c-34.76,1.31-32.13,55.27,3.44,52.21,32.36-2.78,29.31-53.44-3.44-52.21Z"/>
  <path class="st1" d="M994.34,796.87l-13.85,9.09c-17.14,8.54-43.58,4.42-48.48-16.54-2.68-11.46-2.75-51.82-1.36-64.21.9-8.07,5.2-10.85,13.15-10.33,6.15.4,9.74,3.15,10.31,9.35,1.32,14.38-3.27,48.36,3.31,59.44,6.44,10.85,24.13,7.86,30.77-1.86,7.74-11.32,2.89-43.01,4.23-57.58.84-9.17,9.36-10.4,17.17-8.66,9.4,2.1,6,22.57,6.25,30.28.07,2.22.99,4.27,1.01,6.48.16,16.81-1.48,33.57-1.19,50.4-4.92,12.9-22.64,8.27-21.33-5.87Z"/>
  <path class="st1" d="M1125.29,714.67c10.27-.23,28.99,2.93,36.13,11.11,8.21,9.4-.18,22.94-11.93,16.61-10.85-5.84-14.19-14.04-29.85-8.95-6.46,2.1-9.43,9.31-3.88,13.65,4.75,3.72,23.23,6.11,30.11,8.29,15.48,4.91,27.71,16.31,22.01,33.77-8.3,25.41-53.11,25.83-71.36,11.83-6.25-4.79-12.35-14.18-4.79-20.55,9.13-7.69,14.59,2.76,20.71,7.44,7.13,5.45,15.77,7.12,24.52,5.02,7.4-1.77,11.14-11.33,4.39-16.14s-29.96-6.91-40.27-12.18c-13.18-6.74-16.66-24.53-8.22-36.39,6.94-9.77,21.04-13.27,32.44-13.53Z"/>
  <path class="st1" d="M822.71,793.37c5.16,4.85,1.37,13.28-5.18,15.41-14.59,4.74-34.28.95-35.82-17.03-1.54-17.95,1.41-37.88-.19-56.04-1.18-6.33-15.15-.28-14.69-11.34.43-10.39,12.07-4.58,14.43-9.93,1.91-4.34-.63-13.76,1.11-19.49,2.31-7.59,14.77-8.63,20.04-3.49,5.72,5.57.13,17.07,4.6,22.56,3.91,4.82,20.42-.03,17.64,12.87-2.1,9.72-18.31-.16-19.52,14.23-1.19,14.26.45,30.88.66,45.3,2.74,8.93,13.55,3.77,16.93,6.96Z"/>
  <path class="st0" d="M870.49,389.71c41.28-5.58,47.19,55.91,9.02,60.53-41.65,5.04-46.74-55.43-9.02-60.53Z"/>
  <path class="st1" d="M1049.6,728.5c5.94-2.41,7.11-8.35,13.41-11.4,10.8-5.23,24.28-.51,22.12,12.76-2.04,12.53-22.63,5.71-29.59,16.29-7.32,11.13-.21,42.21-4.51,57.3-2.74,9.61-21.47,9.9-22.97-3.3-2.7-23.74,1.97-52.46.06-76.74,3.76-14.14,23.05-9.5,21.49,5.09Z"/>
</svg>