<svg xmlns="http://www.w3.org/2000/svg" id="Capa_1" version="1.1" viewBox="0 0 1969.74 700">
  <!-- Generator: Adobe Illustrator 29.1.0, SVG Export Plug-In . SVG Version: 2.1.0 Build 142)  -->
  <defs fill="#fffffffff">
    <style>
      .st0, .st1 {
        fill: #f2f2f5;
      }

      .st2 {
        fill: #ffffff;
      }

      .st3 {
        fill: #ffffff;
      }

      .st1 {
        font-family: Montserrat-Light, Montserrat;
        font-size: 56.38px;
        font-weight: 300;
      }
    </style>
  </defs>
  <g>
    <path class="st3" d="M756.03,137.38h32.74v146.7h-32.74l-69.89-91.93v91.93h-32.74v-146.7h30.64l71.99,94.44v-94.44Z" fill="#fffffffff"/>
    <path class="st3" d="M863.7,246.2c5.46,6.79,12.8,10.18,22.04,10.18s16.54-3.39,21.93-10.18c5.38-6.79,8.08-16.06,8.08-27.81v-81.01h32.74v82.06c0,21.27-5.88,37.6-17.63,49.01-11.75,11.41-26.8,17.1-45.12,17.1s-33.41-5.74-45.23-17.21c-11.83-11.47-17.73-27.77-17.73-48.9v-82.06h32.74v81.01c0,11.75,2.73,21.02,8.19,27.81Z" fill="#fffffffff"/>
    <path class="st3" d="M1088.26,137.38v29.17h-73.04v30.22h65.69v27.91h-65.69v30.43h75.34v28.96h-108.09v-146.7h105.78Z" fill="#fffffffff"/>
    <path class="st3" d="M1173.89,230.77l37.36-93.39h35.47l-58.97,146.7h-27.7l-58.97-146.7h35.47l37.36,93.39Z" fill="#fffffffff"/>
    <path class="st3" d="M1384.18,263.83c-14.83,14.48-33.09,21.72-54.78,21.72s-39.95-7.24-54.78-21.72c-14.83-14.48-22.25-32.49-22.25-54.04s7.41-39.56,22.25-54.04c14.83-14.48,33.09-21.72,54.78-21.72s39.94,7.24,54.78,21.72c14.83,14.48,22.25,32.5,22.25,54.04s-7.42,39.56-22.25,54.04ZM1373.06,209.89c0-13.08-4.2-24.24-12.59-33.48-8.39-9.23-18.71-13.85-30.96-13.85s-22.56,4.62-30.96,13.85c-8.39,9.23-12.59,20.39-12.59,33.48s4.2,24.21,12.59,33.37c8.4,9.17,18.71,13.75,30.96,13.75s22.56-4.58,30.96-13.75c8.39-9.16,12.59-20.29,12.59-33.37Z" fill="#fffffffff"/>
  </g>
  <g>
    <path class="st3" d="M746.24,321.36h32.74v146.7h-32.74v-57.72h-58.35v57.72h-32.74v-146.7h32.74v61.28h58.35v-61.28Z" fill="#fffffffff"/>
    <path class="st3" d="M938.48,447.81c-14.83,14.48-33.09,21.72-54.78,21.72s-39.95-7.24-54.78-21.72c-14.83-14.48-22.25-32.49-22.25-54.04s7.41-39.56,22.25-54.04c14.83-14.48,33.09-21.72,54.78-21.72s39.94,7.24,54.78,21.72c14.83,14.48,22.25,32.5,22.25,54.04s-7.42,39.56-22.25,54.04ZM927.36,393.87c0-13.08-4.2-24.24-12.59-33.48-8.39-9.23-18.71-13.85-30.96-13.85s-22.56,4.62-30.96,13.85c-8.39,9.23-12.59,20.39-12.59,33.48s4.2,24.21,12.59,33.37c8.4,9.17,18.71,13.75,30.96,13.75s22.56-4.58,30.96-13.75c8.39-9.16,12.59-20.29,12.59-33.37Z" fill="#fffffffff"/>
    <path class="st3" d="M1107.43,370.05c0,23.51-9.31,38.69-27.91,45.54l37.15,52.47h-40.3l-32.53-46.8h-22.67v46.8h-32.74v-146.7h55.62c22.8,0,39.07,3.85,48.8,11.54,9.72,7.7,14.59,20.08,14.59,37.15ZM1067.97,387.47c4.06-3.64,6.09-9.41,6.09-17.31s-2.1-13.33-6.3-16.27c-4.2-2.94-11.54-4.41-22.04-4.41h-24.56v43.44h23.93c11.19,0,18.82-1.82,22.88-5.46Z" fill="#fffffffff"/>
    <path class="st3" d="M1141.01,321.36h32.74v146.7h-32.74v-146.7Z" fill="#fffffffff"/>
    <path class="st3" d="M1201.45,468.06v-22.46l76.81-95.91h-74.3v-28.33h119v22.67l-76.6,95.49h77.86v28.54h-122.78Z" fill="#fffffffff"/>
    <path class="st3" d="M1473.24,447.81c-14.83,14.48-33.09,21.72-54.78,21.72s-39.95-7.24-54.78-21.72c-14.83-14.48-22.25-32.49-22.25-54.04s7.41-39.56,22.25-54.04c14.83-14.48,33.09-21.72,54.78-21.72s39.94,7.24,54.78,21.72c14.83,14.48,22.25,32.5,22.25,54.04s-7.42,39.56-22.25,54.04ZM1462.11,393.87c0-13.08-4.2-24.24-12.59-33.48-8.39-9.23-18.71-13.85-30.96-13.85s-22.56,4.62-30.96,13.85c-8.39,9.23-12.59,20.39-12.59,33.48s4.2,24.21,12.59,33.37c8.4,9.17,18.71,13.75,30.96,13.75s22.56-4.58,30.96-13.75c8.39-9.16,12.59-20.29,12.59-33.37Z" fill="#fffffffff"/>
    <path class="st3" d="M1625.81,321.36h32.74v146.7h-32.74l-69.89-91.93v91.93h-32.74v-146.7h30.64l71.99,94.44v-94.44Z" fill="#fffffffff"/>
    <path class="st3" d="M1756.77,349.69v118.37h-32.74v-118.37h-41.56v-28.33h115.85v28.33h-41.56Z" fill="#fffffffff"/>
    <path class="st3" d="M1928.03,321.36v29.17h-73.04v30.22h65.69v27.91h-65.69v30.43h75.35v28.96h-108.09v-146.7h105.78Z" fill="#fffffffff"/>
  </g>
  <rect class="st3" x="554.75" y="137.24" width="4.66" height="417.77" fill="#fffffffff"/>
  <g>
    <path class="st0" d="M406.54,407.29c-38.08,0-70.24,25.32-80.59,60.03,0,0,0-.01,0-.02,0,0,0,.01,0,.02-10.36-34.72-42.51-60.03-80.59-60.03s-69.03,24.44-79.96,58.2c-.17.61-.3,1.23-.48,1.84-.02-.08-.05-.15-.08-.22-.02.07-.05.15-.08.22-.18-.6-.31-1.23-.48-1.84-10.93-33.76-42.56-58.2-79.96-58.2-9.93,0-19.46,1.74-28.3,4.9,30.85,74.17,103.99,126.33,189.34,126.33s158.51-52.19,189.36-126.38c-8.81-3.13-18.28-4.85-28.16-4.85Z" fill="#fffffffff"/>
    <path class="st3" d="M84.32,359.14c37.99,0,70.08,25.19,80.52,59.77,10.44-34.58,42.53-59.77,80.52-59.77s70.25,25.33,80.6,60.05c10.35-34.73,42.51-60.05,80.6-60.05,14.72,0,28.55,3.79,40.58,10.43,2.08-11.71,3.23-23.75,3.23-36.05,0-113.22-91.78-205-205-205S40.35,220.3,40.35,333.52c0,12.34,1.15,24.4,3.24,36.14,12.07-6.69,25.95-10.52,40.73-10.52Z" fill="#fffffffff"/>
    <path class="st2" d="M371.12,218.59c-2.3-.86-8.25-7.93-35.25-5.68-9.11.76-35.2,8.94-68.29,19.35l-77.47-31.26-23.35,2.5,62.27,40.8c-21.57,6.64-44.27,13.4-66.15,19.25l-45.56-31.67-12.61,3.44,38.56,49.26-11.13,23.1,16.17-1.94,10.7-15.46c25.15-.68,55.31-3.67,90.25-10.73l-15.12,60.86,19.13-8.21,29.64-60.05c93.33-22.31,101.37-39.38,103.14-44.15,1.96-5.25-12.63-8.55-14.92-9.41Z" fill="#fffffffff"/>
  </g>
  <text class="st1" transform="translate(655.03 555.21)" fill="#fffffffff"><tspan x="0" y="0" xml:space="preserve" fill="#fffffffff">A G E N C I A  M A Y O R I S T A</tspan></text>
</svg>