<?xml version="1.0" encoding="UTF-8"?>
<svg id="Capa_1" xmlns="http://www.w3.org/2000/svg" version="1.1" viewBox="0 0 1200 1200">
  <!-- Generator: Adobe Illustrator 29.1.0, SVG Export Plug-In . SVG Version: 2.1.0 Build 142)  -->
  <defs>
    <style>
      .st0 {
        fill: #0099a8;
      }

      .st1 {
        fill: #00ae42;
      }

      .st2 {
        fill: #ffb71b;
      }

      .st3 {
        fill: #af0061;
      }

      .st4 {
        fill: #003764;
      }

      .st5 {
        fill: #ff671d;
      }
    </style>
  </defs>
  <path class="st4" d="M330.28,888.84v9.31c.58.69,6.64-5.61,7.68-6.29,11.16-7.33,29.83-7.54,41.18-.64,4.28,2.6,5.95,6.2,9.98,8.63,13.51-18.07,48.34-18.26,62.27-.43,3.57,4.57,8.47,17.23,8.47,22.86v81.72h-34.72v-77.49c0-1.94-3.25-7.55-4.89-8.9-6.46-5.34-18.95-3.9-23.42,3.46-.33.55-2.18,5.15-2.18,5.44v77.49h-34.72v-77.49c0-.31-1.45-4.3-1.78-4.99-4.53-9.45-19.85-9.45-24.38,0-.33.69-1.78,4.68-1.78,4.99v77.49h-34.72v-115.17h33.03Z"/>
  <path class="st4" d="M102.06,888.84c59.39,6.02,66.84,93.28,13.98,111.37-3.34,1.14-12.6,3.8-15.67,3.8h-58.01v-115.17h59.7ZM97.83,919.33c-6.01-1-14.44.74-20.75,0v54.2h19.9c.39,0,6.32-2.44,7.24-2.92,18.18-9.45,15.48-47.63-6.4-51.28Z"/>
  <path class="st4" d="M1157.64,1004.01h-34.72v-21.17c-9.5.85-20.85-1.13-30.11-.04-1.23.14-2.18.1-2.92,1.31v19.9h-33.87v-74.1c0-1.32,1.76-8.63,2.29-10.42,13.07-44.71,84.48-44.28,97.22-.17.32,1.11,2.12,8.44,2.12,8.89v75.79ZM1122.92,956.59v-28.37c0-.36-2.24-5.93-2.66-6.65-5.89-9.99-23.12-9.71-27.84,1.55-.83,1.99-2.52,8.35-2.52,10.18v23.29h33.03Z"/>
  <path class="st4" d="M881.57,1004.01v-19.9l-1.27-1.27h-31.76v21.17h-34.72c-.23-.62.85-1.01.85-1.27v-74.52c0-.81,1.12-5.73,1.43-7.03,12.59-52.29,100.19-44.18,100.19,12.11v69.44l-1.27,1.27h-33.45ZM881.57,956.59v-24.98c0-2.36-2.7-9.79-4.23-11.86-5.9-7.98-21.01-6.86-26.14,1.82-.42.72-2.66,6.29-2.66,6.65v28.37h33.03Z"/>
  <path class="st4" d="M1037.39,1004.01h-34.72v-72.4c0-.91-1.24-6.42-1.64-7.68-4.29-13.53-24.45-12.37-28.89.85-.35,1.04-1.65,6.19-1.65,6.82v72.4h-34.72v-115.17h33.87l.42,10.16c15.24-18.25,47.94-16.98,60.38,3.98,4.47,7.54,6.39,18.25,6.94,26.94,1.51,24.16-1.11,49.79,0,74.09Z"/>
  <path class="st4" d="M639.38,1004.01h-34.72v-74.94c0-.55-1.52-5.65-1.91-6.56-3.79-8.84-15.75-10.41-23.07-4.87-2.56,1.94-6.36,7.46-6.36,10.59v75.79h-34.72v-115.17h33.03v10.16c11.19-11.17,25.06-15.36,40.68-11.46,14.88,3.71,27.07,21.29,27.07,36.44v80.03Z"/>
  <path class="st4" d="M264.78,906.08c29.84,30.49,17.93,82.87-22.36,96.87-50.61,17.58-96.29-35.45-71.8-82.81,18.03-34.87,66.64-42.19,94.16-14.06ZM202.91,966.26c24.06,25.49,62.67-8.27,41.85-35.49-22.82-29.85-68.38,7.4-41.85,35.49Z"/>
  <path class="st4" d="M795.2,888.84v29.64h-28.37c-1.44,0-8.02,2.94-9.62,3.93-13.34,8.25-13.96,35.15-1.83,44.78,3.35,2.66,10.69,5.48,14.84,5.48h24.98v29.64h-30.91c-60.65,0-73.65-94.36-13.79-111.17,1.58-.44,8.62-2.3,9.55-2.3h35.14Z"/>
  <rect class="st4" x="481.02" y="888.84" width="34.72" height="115.17"/>
  <polygon class="st4" points="695.27 888.84 695.27 1004.01 661.82 1004.01 660.55 1002.74 660.55 890.12 661.82 888.84 695.27 888.84"/>
  <path class="st4" d="M606.77,782.99c17.68,1.95,27.23,19.34,10.59,30.06,14.05,6.14,15.84,25.48.83,31.32-2.64,1.03-10.57,2.98-13.11,2.98h-39.38v-64.36c13.06,1.05,28.27-1.41,41.07,0ZM586.87,807.55h13.13c.32,0,3.75-1.9,4.1-2.73,4.25-10-11.45-8.21-17.23-8.28v11.01ZM603.39,821.95c-4.32-.97-11.79.71-16.51,0v10.16h14.82c5.46,0,7.24-8.91,1.69-10.16Z"/>
  <path class="st4" d="M960.33,847.35h-21.17l-.85-13.55h-20.32v13.55h-19.9l-1.27-1.27v-38.95c0-2,3.16-9.55,4.4-11.69,11.41-19.61,45.86-18.86,55.62,1.63.88,1.85,3.49,9.32,3.49,10.9v39.38ZM939.16,817.71c-1.46-7.8.66-18.72-10.59-18.7-10.85.02-10.97,10.32-10.58,18.7h21.17Z"/>
  <path class="st4" d="M245.6,847.35h-22.44l-10.99-16.16-6.37.07v16.09h-21.17v-62.24c0-.26-1.16-1.2-.85-2.12h36.84c19.2,0,30.84,22.47,19.42,38.05-1.54,2.11-7.17,5.61-7.03,7.11l12.59,19.2ZM218.08,799.93c-3.33-.71-8.67.52-12.28,0v16.09c6.72-.11,16.46,1.87,16.94-7.22.18-3.36-.8-8.04-4.66-8.87Z"/>
  <path class="st4" d="M486.1,782.99v35.99c0,1.37,1.58,7.88,2.52,9.11,4.81,6.29,16.96,2.19,16.96-5.72v-39.38h22.02v64.36h-19.9c-1.92-1.37-1.21-3.86-1.27-5.92-2.74.65-4.26,3.15-6.87,4.55-9.25,4.96-23.71,2.59-29.75-6.47-1.35-2.03-4.87-10.94-4.87-12.91v-43.61h21.17Z"/>
  <path class="st4" d="M395.49,847.35h-19.9l-1.27-1.27v-63.09h37.68c3.74,0,13.84,5.17,16.51,8.05,13.9,15.01,1.79,40.22-18.2,40.22h-13.55l-1.27,1.27v14.82ZM395.49,799.08v15.67c8.4,5.24,24.62-2.1,16.96-12.72-.5-.69-3.32-2.94-3.83-2.94h-13.13Z"/>
  <path class="st4" d="M330.28,782.99v16.94h-25.83c-3.15,0-10.76,7.62-6.77,7.62h22.86c.26,0,.65-1.07,1.27-.85v16.09c-6.88-.27-13.87.1-20.8.05-1.33,0-4.87-1.69-4.24.82.47,1.88,4.97,5.9,6.83,5.9h25.41l1.27,1.27v15.67h-30.91c-1.19,0-10.74-4.5-12.23-5.56-22.15-15.74-12.33-57.95,15.61-57.95h27.52Z"/>
  <path class="st4" d="M861.25,800.77h-19.9c-1.92,0-7.55,2.93-8.91,4.64-3.55,4.44-3.55,14.23,0,18.67,1.36,1.71,6.99,4.64,8.91,4.64h19.9v18.63h-23.29c-39.46,0-41.52-65.21,1.69-65.21h20.32l1.27,1.27v17.36Z"/>
  <polygon class="st4" points="685.95 830.41 714.75 830.41 714.75 847.35 663.94 847.35 663.94 782.99 684.68 782.99 685.95 784.26 685.95 830.41"/>
  <rect class="st4" x="751.16" y="782.99" width="22.02" height="64.36"/>
  <path class="st4" d="M517.43,764.35c-10.27,5.49-17.16,18.69-30.47,12.29l12.44-13.8,15.89-.16,2.14,1.66Z"/>
  <g>
    <g>
      <path class="st5" d="M880.39,642.87c-12.67,5.38-23.42,9.98-29.18,23.04-.77,1.15-1.15,2.69-1.92,4.22l52.99,8.06-6.14-42.62c-4.99,2.3-10.37,4.99-15.74,7.3"/>
      <path class="st5" d="M795.14,656.31c1.15-6.91,2.69-14.21,6.14-19.97,9.98-16.51,24.19-22.27,37.25-26.88,8.83-3.46,18.43-5.76,24.19-13.44,7.3-9.6,10.37-25.73,11.14-38.4-9.6-15.74-22.66-30.34-37.63-41.47-8.06,29.18-25.73,54.14-49.54,71.42,3.07,20.74,2.3,42.24-2.3,62.59,3.84,2.3,7.3,4.22,10.75,6.14M838.15,563.39c10.37-1.54,19.2,7.3,17.66,17.66-1.15,6.53-6.14,11.52-12.29,12.29-10.37,1.54-19.2-7.3-17.66-17.66,1.15-6.14,6.14-11.14,12.29-12.29"/>
      <path class="st5" d="M837.38,659.38c8.45-18.43,23.81-24.96,37.25-30.72,7.3-3.07,13.82-6.14,19.2-10.37l-1.92-12.67c-1.15-8.45-3.46-17.28-6.91-25.34-.38,1.54-.38,3.07-.77,4.61-1.54,8.06-4.61,16.13-11.14,22.27-9.22,8.83-19.2,12.67-29.18,16.51-11.9,4.61-22.27,8.83-29.57,20.74-2.69,4.61-4.22,11.14-4.61,18.05,6.53,2.3,13.44,3.84,19.97,4.99l3.84.77c1.15-3.07,2.3-6.14,3.84-8.83"/>
    </g>
    <path class="st0" d="M773.64,308.03c-18.43,11.14-34.94,26.5-47.62,43.78-5.38-.77-11.14-1.15-16.51-1.15-6.53,0-12.67.38-18.82,1.54-7.3-11.9-15.36-22.66-24.58-33.02l15.74-18.43,24.96,37.25,52.99-72.19c6.91,13.06,11.52,27.26,13.82,42.24M683.4,271.93l23.81,35.71,42.24-57.22-42.24-56.83-43.39,58.37c-9.6,13.06-16.51,28.42-20.74,44.93,3.84,3.07,7.3,6.53,10.75,9.98l29.57-34.94Z"/>
    <path class="st1" d="M922.62,483.13s-37.63,56.45-40.7,62.97c-5.38-7.68-11.14-14.98-17.66-21.5l28.42-40.32-39.94-68.35c11.9,1.15,23.81,3.46,34.94,7.3l34.94,59.9ZM851.59,512.31l20.74-29.18-39.94-67.97c-3.07,0-6.14.38-9.6.77,11.14,19.2,17.66,41.47,18.05,65.66,0,7.3-.38,14.59-1.54,21.5,4.22,2.69,8.45,5.76,12.29,9.22M920.7,440.12c-1.54-1.15-3.07-2.3-4.61-3.07l27.26,46.85-36.48,51.84c4.61-2.69,9.22-5.38,13.44-8.45l58.75-43.39-58.37-43.78Z"/>
    <path class="st3" d="M812.8,400.96c-6.53-8.45-14.21-15.74-22.66-22.27l61.82-80.25,47.62-6.91-6.91,47.23-79.87,62.21ZM839.3,402.11h1.15c11.52,0,22.66,1.15,33.79,3.46,7.3-13.44,12.67-27.65,14.59-41.86l-49.54,38.4ZM776.32,369.08l51.84-67.58h-.77c-33.41,4.61-65.28,25.34-87.17,52.99,13.06,3.07,24.96,8.06,36.1,14.59Z"/>
    <path class="st4" d="M546.31,481.98c.38,37.63-36.86,65.66-82.17,65.66h-3.46v-131.71h3.46c45.7,0,82.17,24.96,82.17,66.05M606.21,561.85c-24.19,34.94-63.36,57.6-107.9,57.6h-122.11v-274.94h122.11c44.54,0,83.71,22.66,107.9,57.6,16.9-21.89,40.7-38.4,67.97-46.08-38.78-59.52-104.45-98.69-179.33-98.69h-199.29v448.89h199.68c74.49,0,140.54-39.17,179.33-98.3-27.65-7.68-51.46-24.19-68.35-46.08M678.02,450.49c-17.28,17.66-17.28,45.7.38,63.36,17.66,17.66,45.7,17.28,63.36-.38,17.66-17.66,17.28-45.7-.38-63.36-17.66-17.66-45.7-17.28-63.36.38"/>
    <path class="st2" d="M686.08,618.68c1.54-2.3,3.07-4.61,4.61-7.3,6.53.77,13.06,1.54,19.97,1.54,12.29,0,23.81-1.92,34.94-4.99,1.54,4.99,2.3,10.37,1.15,16.13-2.69,13.06-13.82,23.04-27.26,24.19-18.05,1.54-33.02-12.29-33.41-29.57ZM681.09,683.19c-8.06,0-15.74,1.92-22.27,5.38.77,1.15,2.69,3.84,4.61,6.53l43.39,58.75,23.42-31.1c-4.99-22.66-24.96-39.55-49.15-39.55M774.79,595.64c-4.99,2.69-14.98,7.3-14.98,7.3,0,0,2.69,9.6,2.69,14.98,0,25.34-20.35,45.7-45.7,45.7-19.2,0-35.71-11.9-42.24-28.42-8.45,10.37-17.28,19.97-27.26,28.8,1.15,3.84,3.07,7.3,4.61,11.14,8.83-4.61,18.82-6.91,29.57-6.91,26.88,0,50.3,16.51,60.29,39.55l9.22-12.29c19.97-27.26,28.03-64.89,23.81-99.84"/>
  </g>
</svg>