<?xml version="1.0" encoding="UTF-8"?>
<svg id="Capa_1" xmlns="http://www.w3.org/2000/svg" version="1.1" viewBox="0 0 1200 1200">
  <!-- Generator: Adobe Illustrator 29.1.0, SVG Export Plug-In . SVG Version: 2.1.0 Build 142)  -->
  <defs>
    <style>
      .st0 {
        fill: #232675;
        fill-rule: evenodd;
      }

      .st1 {
        fill: #026499;
      }

      .st2 {
        fill: #232474;
      }

      .st3 {
        fill: #222477;
      }

      .st4 {
        fill: #0163a2;
      }

      .st5 {
        fill: #0163a4;
      }

      .st6 {
        fill: #222575;
      }

      .st7 {
        fill: #0164a0;
      }

      .st8 {
        fill: #0264a3;
      }

      .st9 {
        fill: #232475;
      }

      .st10 {
        fill: #232572;
      }

      .st11 {
        fill: #232570;
      }

      .st12 {
        fill: #00b8ef;
      }

      .st13 {
        fill: #0064a4;
      }

      .st14 {
        fill: #0064a2;
      }
    </style>
  </defs>
  <path class="st9" d="M1145.93,716.12c.14,1.15.15,3.37,0,4.5-3.06,23-37.87,23.03-39.92-.29-2.33-26.62,36.81-30.18,39.92-4.21Z"/>
  <path class="st3" d="M1145.93,527.04c.13,1.19.15,3.34,0,4.5-3.32,24.93-42.29,22.21-39.92-4.85,2.03-23.13,37.36-23.47,39.92.35Z"/>
  <path class="st14" d="M1145.93,767.57c-3.34,25.12-41.38,22.77-39.91-3.57,1.34-23.97,36.79-24.42,39.91-.93.15,1.11.15,3.39,0,4.5Z"/>
  <path class="st10" d="M506.89,698.27c31.19-4.88,32.25,44.26.01,39.55-21.15-3.09-21.01-36.27-.01-39.55Z"/>
  <path class="st14" d="M1092.95,704.13c16.4,16.79-5.66,44.13-25.72,30.54-24.01-16.27,5.4-51.35,25.72-30.54Z"/>
  <path class="st0" d="M885.84,414.65c27.04-4.26,32.09,36.26,6.23,39.66-26.13,3.44-31.12-35.74-6.23-39.66Z"/>
  <path class="st14" d="M980.42,509.19c27.28-4.31,31.86,36.75,6.21,39.65-26.71,3.02-30.55-35.8-6.21-39.65Z"/>
  <path class="st3" d="M980.42,414.65c27.11-4.27,32.05,36.42,6.23,39.67s-30.96-35.77-6.23-39.67Z"/>
  <path class="st3" d="M1075.65,603.74c21.56-2.83,31.71,25.91,13.11,36.9-16.01,9.46-34.76-5.67-29.23-23.43,2.14-6.86,9.01-12.53,16.12-13.47Z"/>
  <path class="st3" d="M129.88,603.74c26.33-3.45,30.82,36.29,5.57,39.65-26.63,3.54-31.55-36.25-5.57-39.65Z"/>
  <path class="st12" d="M129.24,509.2c27.33-3.71,31.3,36.37,6.21,39.65-26.89,3.52-30.93-36.29-6.21-39.65Z"/>
  <path class="st3" d="M176.85,603.74c26.84-3.65,30.7,36.41,6.21,39.65-27.23,3.61-31.58-36.2-6.21-39.65Z"/>
  <path class="st3" d="M318.38,509.19c26.79-4.23,31.85,36.31,6.23,39.66-26.5,3.47-31.2-35.72-6.23-39.66Z"/>
  <path class="st5" d="M129.24,414.66c27.39-3.79,31.56,36.78,5.56,39.64-26.19,2.88-30.2-36.22-5.56-39.64Z"/>
  <path class="st14" d="M885.84,509.19c26.99-4.26,32.03,36.73,6.21,39.65-26.66,3.01-30.71-35.78-6.21-39.65Z"/>
  <path class="st3" d="M649.08,414.65c27.71-4.37,32.03,36.82,6.21,39.65-26.54,2.91-30.04-35.89-6.21-39.65Z"/>
  <path class="st14" d="M1028.02,603.73c26.85-3.93,31.56,36.29,6.23,39.66-26.77,3.56-31.14-36.02-6.23-39.66Z"/>
  <path class="st5" d="M554.5,414.65c27.63-4.36,32.08,36.81,6.21,39.65-26.54,2.91-30.04-35.89-6.21-39.65Z"/>
  <path class="st3" d="M510.7,556.23c26.43-.3,26.6,40.35-.11,40.13-25.62-.21-26.16-39.83.11-40.13Z"/>
  <path class="st3" d="M510.7,461.69c26.19-.3,26.69,39.72.43,40.02-26.3.3-26.81-39.72-.43-40.02Z"/>
  <path class="st14" d="M933.46,414.66c27.36-3.71,31.36,36.81,5.56,39.64-26.36,2.89-30.16-36.3-5.56-39.64Z"/>
  <path class="st5" d="M699.86,461.69c26.3-.3,26.81,39.72.43,40.02-26.19.3-26.69-39.72-.43-40.02Z"/>
  <path class="st12" d="M176.19,414.65c27.52-4.34,31.78,36.86,6.21,39.65-26.69,2.91-30.38-35.84-6.21-39.65Z"/>
  <path class="st0" d="M933.46,509.2c27.22-3.66,31.13,36.33,6.21,39.65-26.9,3.58-31.02-36.31-6.21-39.65Z"/>
  <path class="st12" d="M601.48,745.87c30.18-4.41,31.55,39.29,4.27,39.63-24.78.32-26.85-36.34-4.27-39.63Z"/>
  <path class="st12" d="M555.15,509.2c27.1-3.67,30.86,36.37,6.21,39.65-26.94,3.59-31.37-36.25-6.21-39.65Z"/>
  <path class="st12" d="M981.07,698.28c26.69-3.51,30.69,36.42,6.22,39.65-27.37,3.62-31.64-36.31-6.22-39.65Z"/>
  <path class="st13" d="M600.82,556.78c33.87-5.71,30.75,46.12,0,38.91-21.09-4.94-19.2-35.68,0-38.91Z"/>
  <path class="st12" d="M224.46,698.28c26.53-3.47,30.62,36.59,5.55,39.63-27.06,3.28-31.08-36.29-5.55-39.63Z"/>
  <path class="st12" d="M649.73,603.74c27.11-3.65,30.89,36.37,6.21,39.65-27.12,3.61-31.18-36.29-6.21-39.65Z"/>
  <path class="st12" d="M555.15,603.74c27.02-3.64,30.94,36.36,6.21,39.65-27.06,3.6-31.26-36.28-6.21-39.65Z"/>
  <path class="st3" d="M416.13,556.23c26.44-.3,26.52,40.35-.11,40.13-25.56-.21-26.26-39.83.11-40.13Z"/>
  <path class="st2" d="M697.34,698.28c29.51-3.87,30.24,43.85-.64,39.54-21.58-3.01-22.17-36.54.64-39.54Z"/>
  <path class="st3" d="M176.85,509.2c26.92-3.64,30.95,36.78,5.56,39.64-26.61,2.99-30.75-36.22-5.56-39.64Z"/>
  <path class="st8" d="M696.04,745.86c30.24-4.76,31.69,39.97,3.78,39.65-24.22-.28-26.22-36.12-3.78-39.65Z"/>
  <path class="st0" d="M886.49,698.28c26.74-3.51,30.6,36.43,6.22,39.65-27.39,3.62-31.66-36.31-6.22-39.65Z"/>
  <path class="st12" d="M696.06,651.33c30.34-4.41,31.48,39.29,4.27,39.63-24.54.31-26.97-36.34-4.27-39.63Z"/>
  <path class="st3" d="M1028.04,509.2c30.36-4.13,30.4,43.66,0,39.54-22.1-3-21.92-36.56,0-39.54Z"/>
  <path class="st11" d="M686.14,827.15c-17.67-16.81,5.84-45.3,25.83-30.64,22.44,16.46-5.37,50.09-25.83,30.64Z"/>
  <path class="st13" d="M319.03,698.28c26.51-3.47,30.68,36.59,5.55,39.63-27.01,3.28-31.05-36.3-5.55-39.63Z"/>
  <path class="st3" d="M794.43,367.15c26.3-.3,26.81,39.72.43,40.02-26.08.3-26.75-39.72-.43-40.02Z"/>
  <path class="st6" d="M794.43,556.23c26.59-.3,26.4,39.92.53,40.13-26.37.21-26.66-39.83-.53-40.13Z"/>
  <path class="st2" d="M365.35,414.65c27.56-4.35,31.87,36.85,6.21,39.65s-30.15-35.87-6.21-39.65Z"/>
  <path class="st2" d="M416.13,461.69c26.17-.3,26.67,39.72.43,40.02-26.3.3-26.81-39.72-.43-40.02Z"/>
  <path class="st3" d="M177.5,698.3c26.44-2.82,29.7,36.42,5.56,39.64-27.54,3.67-31.6-36.86-5.56-39.64Z"/>
  <path class="st12" d="M886.49,603.74c26.74-3.51,30.6,36.4,6.21,39.65-27.29,3.64-31.75-36.3-6.21-39.65Z"/>
  <path class="st12" d="M413.61,603.74c26.73-3.51,30.56,36.66,5.56,39.63-26.97,3.21-31.01-36.29-5.56-39.63Z"/>
  <path class="st2" d="M412.97,414.66c27.35-3.79,31.43,36.33,6.21,39.65-26.5,3.49-30.97-36.22-6.21-39.65Z"/>
  <path class="st13" d="M697.34,603.74c26.66-3.5,30.82,36.77,5.56,39.63-26.82,3.04-30.93-36.3-5.56-39.63Z"/>
  <path class="st14" d="M885.21,651.33c30.44-4.42,31.47,39.29,4.27,39.63-24.58.31-26.69-36.38-4.27-39.63Z"/>
  <path class="st12" d="M412.96,509.19c26.79-4.23,31.85,36.31,6.23,39.66s-31.27-35.71-6.23-39.66Z"/>
  <path class="st12" d="M1016.84,798.67c20.28-20.76,49.51,14.41,25.72,30.54-20.02,13.57-42.18-13.69-25.72-30.54Z"/>
  <path class="st12" d="M194.15,798.67c16.46,16.85-5.7,44.11-25.72,30.54-23.79-16.13,5.45-51.3,25.72-30.54Z"/>
  <path class="st9" d="M411.67,651.32c30.5-5.15,32.38,39.31,4.92,39.65-24.68.31-26.71-35.97-4.92-39.65Z"/>
  <path class="st7" d="M366,603.74c26.94-3.65,30.74,36.38,6.21,39.65-27.17,3.62-31.32-36.25-6.21-39.65Z"/>
  <path class="st12" d="M320.98,367.08c26.58-.86,27.33,39.79,1,40.09s-26.74-39.26-1-40.09Z"/>
  <path class="st10" d="M555.81,698.3c26.74-2.84,29.86,36.4,5.56,39.64-27.28,3.63-31.34-36.9-5.56-39.64Z"/>
  <path class="st2" d="M790.62,745.86c29.89-4.7,31.88,39.28,4.28,39.65-24.5.33-26.87-36.1-4.28-39.65Z"/>
  <path class="st13" d="M366.64,792.82c26.03-3.09,30.21,36.38,5.57,39.65-27.4,3.64-31.51-36.57-5.57-39.65Z"/>
  <path class="st2" d="M744.95,698.28c26.44-3.09,30.28,36.36,5.57,39.65-27.17,3.62-31.28-36.64-5.57-39.65Z"/>
  <path class="st3" d="M272.08,698.3c26.53-2.83,29.71,36.42,5.56,39.64-27.56,3.67-31.39-36.88-5.56-39.64Z"/>
  <path class="st13" d="M222.51,745.86c26.83-4.53,33.58,32.37,9.85,38.78-27.41,7.4-34.36-34.65-9.85-38.78Z"/>
  <path class="st3" d="M317.75,745.87c25.48-3.72,32.66,30.24,11.08,38.09-28.45,10.34-37.49-34.23-11.08-38.09Z"/>
  <path class="st3" d="M84.79,461.69c26.4-.29,26.92,39.69.43,40.02-25.94.32-26.44-39.73-.43-40.02Z"/>
  <path class="st12" d="M839.52,698.28c26.44-3.09,30.28,36.36,5.57,39.65-27.09,3.61-31.33-36.64-5.57-39.65Z"/>
  <path class="st12" d="M165.65,562c16.93-16.92,45.08,6.22,30.01,26.46-16.47,22.12-50.19-6.28-30.01-26.46Z"/>
  <path class="st3" d="M602.76,603.74c26.84-3.52,30.51,36.8,5.56,39.63-26.84,3.05-30.96-36.3-5.56-39.63Z"/>
  <path class="st14" d="M1078.16,461.69c26.4-.29,26.92,39.69.43,40.02-25.94.32-26.44-39.73-.43-40.02Z"/>
  <path class="st12" d="M1045.34,562c20.18,20.18-13.54,48.58-30.01,26.46-15.07-20.24,13.09-43.39,30.01-26.46Z"/>
  <path class="st9" d="M366.66,698.3c26.59-2.82,29.8,36.41,5.56,39.64-27.37,3.65-31.42-36.89-5.56-39.64Z"/>
  <path class="st3" d="M270.13,745.86c30.82-4.8,31.42,40.35,3.81,39.67-24.23-.59-25.64-36.27-3.81-39.67Z"/>
  <path class="st14" d="M979.79,651.33c30.39-4.41,31.57,39.29,4.27,39.63-24.46.31-26.66-36.38-4.27-39.63Z"/>
  <path class="st13" d="M507.53,509.19c26.77-4.23,31.9,36.3,6.23,39.66-26.22,3.43-31.16-35.72-6.23-39.66Z"/>
  <path class="st1" d="M222.51,651.32c27.04-4.57,33.39,32.51,9.85,38.78-27.45,7.32-34.35-34.65-9.85-38.78Z"/>
  <path class="st0" d="M837.58,745.86c26.82-4.53,33.26,32.48,9.85,38.78-27.52,7.41-34.53-34.62-9.85-38.78Z"/>
  <path class="st0" d="M889.54,556.35c26.01,0,25.78,39.79,0,40.01-26.1.22-27.02-40.01,0-40.01Z"/>
  <path class="st12" d="M449.38,495.95c-19.44-19.43,12.09-48.39,29.7-26.79,15.93,19.54-12.31,44.17-29.7,26.79Z"/>
  <path class="st9" d="M1064.45,751.08c19.22-19.26,48.49,12.56,26.46,29.98-19.52,15.44-44.11-12.3-26.46-29.98Z"/>
  <path class="st3" d="M761.61,467.46c19.4,19.4-12.08,48.4-29.7,26.79-15.93-19.54,12.32-44.17,29.7-26.79Z"/>
  <path class="st14" d="M983.59,461.69c26.32-.3,26.83,39.72.43,40.02-26.03.3-26.52-39.72-.43-40.02Z"/>
  <path class="st7" d="M354.8,590.49c-17.44-17.44,6.62-45.13,26.47-30,21.97,16.74-6.66,49.81-26.47,30Z"/>
  <path class="st12" d="M354.8,685.03c-19.99-19.99,13.33-48.35,30.01-26.46,15.08,19.79-12.66,43.8-30.01,26.46Z"/>
  <path class="st0" d="M856.18,685.03c-17.35,17.34-45.1-6.68-30.01-26.46,16.68-21.88,50.01,6.48,30.01,26.46Z"/>
  <path class="st3" d="M1045.34,656.54c17.55,17.58-6.93,45.44-26.46,29.98-22.18-17.55,7.28-49.2,26.46-29.98Z"/>
  <path class="st0" d="M950.76,656.54c20.28,19.79-13.92,49.57-30.54,25.7-13.86-19.9,13.56-42.28,30.54-25.7Z"/>
  <path class="st3" d="M71.07,751.08c16.89-16.48,44.23,5.6,30.55,25.71-16.17,23.78-51.11-5.65-30.55-25.71Z"/>
  <path class="st10" d="M477.88,779.56c-17.56,17.52-45.42-6.97-30-26.45,17.56-22.17,49.28,7.21,30,26.45Z"/>
  <path class="st3" d="M602.11,414.65c26.78-4.23,31.94,36.28,6.23,39.66-26.12,3.44-31.2-35.72-6.23-39.66Z"/>
  <path class="st12" d="M696.69,414.65c26.79-4.23,32.01,36.27,6.23,39.66-26.12,3.44-31.12-35.73-6.23-39.66Z"/>
  <path class="st3" d="M179.36,461.69c26.7-.59,26.71,40.61,0,40.02-25.73-.57-25.74-39.45,0-40.02Z"/>
  <path class="st12" d="M354.8,495.95c-19.95-19.95,13.14-48.57,30.01-26.46,15.15,19.85-12.87,43.6-30.01,26.46Z"/>
  <path class="st3" d="M84.86,367.08c26.31-.38,26.74,39.97.47,39.97-26.62,0-26.14-39.6-.47-39.97Z"/>
  <path class="st14" d="M950.76,562c19.9,19.93-13.08,48.65-30.01,26.46-15.17-19.88,12.99-43.51,30.01-26.46Z"/>
  <path class="st5" d="M667.03,372.92c19.39,19.38-12.2,48.26-29.7,26.79-15.91-19.52,12.18-44.3,29.7-26.79Z"/>
  <path class="st4" d="M572.45,779.56c-19.92,19.91-48.63-13.1-26.47-30,19.91-15.18,43.53,12.96,26.47,30Z"/>
  <path class="st2" d="M667.03,779.56c-17.41,17.4-45.2-6.55-30.01-26.46,16.79-22.02,49.74,6.74,30.01,26.46Z"/>
  <path class="st6" d="M761.61,685.03c-20.28,20.27-49.02-14.34-25.71-30.53,20.02-13.91,42.63,13.62,25.71,30.53Z"/>
  <path class="st5" d="M132.29,556.35c26.96,0,25.91,40.23,0,40.01s-26.01-40.01,0-40.01Z"/>
  <path class="st12" d="M950.76,467.46c17.37,17.37-6.5,45.22-26.47,30-22.09-16.83,6.84-49.63,26.47-30Z"/>
  <path class="st12" d="M146.54,656.54c17.6,17.63-6.96,45.4-26.46,29.98-22.09-17.47,7.26-49.22,26.46-29.98Z"/>
  <path class="st3" d="M1078.23,367.08c26.25-.38,26.75,39.97.47,39.97s-26.14-39.6-.47-39.97Z"/>
  <path class="st9" d="M1064.45,656.54c19.2-19.23,48.55,12.52,26.46,29.98-19.5,15.42-44.05-12.36-26.46-29.98Z"/>
  <path class="st3" d="M543.96,495.95c-17.48-17.47,7.21-45.65,26.8-29.69,21.61,17.6-7.57,48.91-26.8,29.69Z"/>
  <path class="st3" d="M667.03,590.49c-19.39,19.38-48.28-12.19-26.8-29.69,19.47-15.86,44.3,12.19,26.8,29.69Z"/>
  <path class="st3" d="M543.96,590.49c-17.5-17.49,7.33-45.55,26.8-29.69,21.48,17.5-7.42,49.07-26.8,29.69Z"/>
</svg>