<?xml version="1.0" encoding="UTF-8"?>
<svg id="Capa_1" xmlns="http://www.w3.org/2000/svg" version="1.1" viewBox="0 0 1200 1200">
  <!-- Generator: Adobe Illustrator 29.1.0, SVG Export Plug-In . SVG Version: 2.1.0 Build 142)  -->
  <defs>
    <style>
      .st0 {
        fill: #e21f1b;
      }
    </style>
  </defs>
  <path class="st0" d="M588.02,572.54l39.09-.67c7.18-58.87,125.05-70.42,115.59-5.63-4.84,33.17-50.94,27.21-73.36,30.08-5.55.71-6.85-2.12-5.81,5.89,18.83,35.36,57.36,42.85,91.45,24.09,38.22-21.03,20.55-54.7,33.29-65.96,6.88-6.08,61.65-20.75,71.37-19.52,36.66,4.62,21.87,46.33,33.17,70.34,11.39,24.2,41.1,15.21,55.88-1.56,21.44-24.32,9.08-64.35,52.22-60.92.18,31.26-8.47,83.04,37.68,79.65,54.07-3.98,30.1-85.73,77.46-87.57,1.21,13.45-1.62,28.63-.07,41.76,4.65,39.36,53.63,39.11,55.57,47.8-15.65,48.2-55.47,5.11-73.37-18.1-27.38,53.36-121.66,54.3-121.09-15.9-9.48-2.14-6.42,1.63-8.85,5.18-13.18,19.25-21.31,41.87-48.95,46.17-29.29,4.55-43.29-5.57-56.54-30.28s-5.51-55.3-44.67-43.09c-21.29,6.64-22.99,33.62-33.78,49.56-31.56,46.6-113.47,49.48-144.02,1.6-16.24-25.45-3.71-34.2-48.3-29.16-2.55,51.65-8.55,119.79-43.74,160.73-44.27,51.5-201.44,94.42-267.87,93.72-136.93-1.43-181.87-168.11-172.22-279.72,12.26-141.82,135.46-162.78,255.5-153.29,90.51,7.15,159.55,50.52,166.57,147.07l30.03,3.74c-4.26-60.31-20.79-149.79-74.12-185.96-80.34-54.49-309.68-42.31-382.55,25.06-74.4,68.79-38.03,299.58-17.82,391.19,13.54,61.38,31.54,122.2,53.72,180.97,3.4,10.6-25.81,28.17-32.02,23.74-34.61-99.87-59.96-204.58-71.24-310-10.14-94.7-23.64-244.21,55.5-313.65,78.02-68.46,312.88-72.42,402.32-25.07,69.42,36.74,90.97,145.39,93.97,217.69ZM504.65,572.51c-1.67-76.52-69.92-121.03-140.98-126.98-179.11-14.99-251.34,54.71-214.47,234.32,33.35,162.46,148.49,157.84,282.17,111.17,103.54-36.15,133.02-87.88,128.91-198.67h-23.86c-1.12,28.02-4.69,65.7-19.01,90.17-40.75,69.69-225.26,105.31-280.81,44.92-34.47-37.48-44.04-122.28-24.83-167.93,39.32-93.45,219.32-95.53,249.83,8.42l43.05,4.59ZM433.18,564.56c-23.49-60.06-117.03-63.98-164.08-31.08-53.05,37.09-51.8,149.2,3.9,181.37,41.48,23.96,143.89,10.61,185.3-12.02,41.41-22.64,56.63-65,54.32-110.48l-43.67-3.97c-1.4,23.22-3.93,48.01-18.14,67.25-35.51,48.07-151.98,41.64-163.53-26.48-15.01-88.54,92.46-64.49,145.9-64.59ZM663.49,572.5c13.79,1.72,65.32,2.59,59.14-21.09-7.61-29.16-60.04-5.81-59.14,21.09ZM441.14,588.4h-85.36c-24.52,0-43.46,39.46-11.32,58.96,44.92,27.25,106.18-3.25,96.67-58.96Z"/>
  <path class="st0" d="M1096.2,489.19c6.25,8.63-49.6,46-60.68,43.09-27.98-7.35,21.11-47.51,38.81-47.51,7.7,0,14.55,3.01,21.87,4.43Z"/>
</svg>